<svg width="232" height="142" viewBox="0 0 232 142" fill="none" xmlns="http://www.w3.org/2000/svg">
<mask id="mask0_201_34" style="mask-type:alpha" maskUnits="userSpaceOnUse" x="0" y="0" width="232" height="142">
<rect y="71" width="100" height="100" transform="rotate(-45 0 71)" fill="black"/>
<rect x="89.7109" y="70.7107" width="100" height="100" transform="rotate(-45 89.7109 70.7107)" fill="black"/>
</mask>
<g mask="url(#mask0_201_34)">
<path fill-rule="evenodd" clip-rule="evenodd" d="M32.6198 -30.2873C35.9411 -26.5753 35.6243 -20.8737 31.9123 -17.5524C23.7533 -10.2523 13.5096 4.31514 10.5351 23.4812C7.6196 42.2677 11.5499 66.3288 32.9698 93.3855C56.2838 122.835 67.8164 145.989 72.422 163.419C76.8872 180.317 75.2279 193.733 68.7612 201.123C65.4812 204.872 59.7835 205.251 56.0349 201.971C52.2864 198.692 51.9065 192.994 55.1865 189.245C55.7344 188.619 58.8852 182.794 54.9829 168.027C51.2211 153.79 41.2088 132.853 18.8275 104.581C-5.44795 73.9178 -11.0375 44.868 -7.28912 20.715C-3.59966 -3.05838 9.00421 -21.2594 19.8849 -30.9948C23.597 -34.3161 29.2986 -33.9993 32.6198 -30.2873Z" fill="black"/>
<path fill-rule="evenodd" clip-rule="evenodd" d="M139.07 -30.9948C142.391 -27.2828 142.075 -21.5812 138.363 -18.2599C130.204 -10.9598 119.96 3.6076 116.985 22.7737C114.07 41.5603 118 65.6213 139.42 92.678C162.734 122.127 174.267 145.282 178.872 162.711C183.337 179.61 181.678 193.025 175.211 200.416C171.931 204.164 166.234 204.544 162.485 201.264C158.737 197.984 158.357 192.286 161.637 188.538C162.185 187.912 165.335 182.087 161.433 167.319C157.671 153.083 147.659 132.145 125.278 103.874C101.002 73.2103 95.4127 44.1606 99.1611 20.0075C102.851 -3.76592 115.454 -21.9669 126.335 -31.7023C130.047 -35.0236 135.749 -34.7068 139.07 -30.9948Z" fill="black"/>
<path fill-rule="evenodd" clip-rule="evenodd" d="M87.9636 -30.9948C91.2848 -27.2828 90.9681 -21.5812 87.2561 -18.2599C79.0971 -10.9598 68.8533 3.6076 65.8789 22.7737C62.9633 41.5603 66.8937 65.6213 88.3135 92.678C111.628 122.127 123.16 145.282 127.766 162.711C132.231 179.61 130.572 193.025 124.105 200.416C120.825 204.164 115.127 204.544 111.379 201.264C107.63 197.984 107.25 192.286 110.53 188.538C111.078 187.912 114.229 182.087 110.327 167.319C106.565 153.083 96.5525 132.145 74.1712 103.874C49.8958 73.2103 44.3063 44.1606 48.0546 20.0075C51.7441 -3.76592 64.348 -21.9669 75.2287 -31.7023C78.9407 -35.0236 84.6423 -34.7068 87.9636 -30.9948Z" fill="black"/>
<path fill-rule="evenodd" clip-rule="evenodd" d="M190.35 -30.9948C193.672 -27.2828 193.355 -21.5812 189.643 -18.2599C181.484 -10.9598 171.24 3.6076 168.266 22.7737C165.35 41.5602 169.28 65.6213 190.7 92.678C214.014 122.127 225.547 145.282 230.152 162.711C234.618 179.61 232.958 193.025 226.492 200.416C223.212 204.164 217.514 204.544 213.765 201.264C210.017 197.984 209.637 192.286 212.917 188.538C213.465 187.912 216.616 182.087 212.713 167.319C208.952 153.083 198.939 132.145 176.558 103.874C152.283 73.2103 146.693 44.1605 150.441 20.0075C154.131 -3.76593 166.735 -21.9669 177.615 -31.7023C181.327 -35.0236 187.029 -34.7068 190.35 -30.9948Z" fill="black"/>
<path fill-rule="evenodd" clip-rule="evenodd" d="M241.682 -37.9948C245.004 -34.2828 244.687 -28.5812 240.975 -25.2599C232.816 -17.9598 222.572 -3.3924 219.598 15.7737C216.682 34.5602 220.612 58.6213 242.032 85.678C265.346 115.127 276.879 138.282 281.485 155.711C285.95 172.61 284.29 186.025 277.824 193.416C274.544 197.164 268.846 197.544 265.097 194.264C261.349 190.984 260.969 185.286 264.249 181.538C264.797 180.912 267.948 175.087 264.045 160.319C260.284 146.083 250.271 125.145 227.89 96.874C203.615 66.2103 198.025 37.1605 201.773 13.0075C205.463 -10.7659 218.067 -28.9669 228.947 -38.7023C232.659 -42.0236 238.361 -41.7068 241.682 -37.9948Z" fill="black"/>
<path fill-rule="evenodd" clip-rule="evenodd" d="M61.6823 -30.9948C65.0036 -27.2828 64.6868 -21.5812 60.9748 -18.2599C52.8158 -10.9598 42.5721 3.6076 39.5976 22.7737C36.6821 41.5603 40.6124 65.6213 62.0323 92.678C85.3463 122.127 96.8789 145.282 101.485 162.711C105.95 179.61 104.29 193.025 97.8237 200.416C94.5437 204.164 88.846 204.544 85.0974 201.264C81.3489 197.984 80.969 192.286 84.249 188.538C84.7969 187.912 87.9477 182.087 84.0454 167.319C80.2836 153.083 70.2713 132.145 47.89 103.874C23.6145 73.2103 18.025 44.1606 21.7734 20.0075C25.4628 -3.76592 38.0667 -21.9669 48.9474 -31.7023C52.6594 -35.0236 58.361 -34.7068 61.6823 -30.9948Z" fill="black"/>
<path fill-rule="evenodd" clip-rule="evenodd" d="M166.119 -30.9948C169.44 -27.2828 169.123 -21.5812 165.411 -18.2599C157.252 -10.9598 147.009 3.6076 144.034 22.7737C141.119 41.5603 145.049 65.6213 166.469 92.678C189.783 122.127 201.315 145.282 205.921 162.711C210.386 179.61 208.727 193.025 202.26 200.416C198.98 204.164 193.283 204.544 189.534 201.264C185.785 197.984 185.406 192.286 188.686 188.538C189.233 187.912 192.384 182.087 188.482 167.319C184.72 153.083 174.708 132.145 152.326 103.874C128.051 73.2103 122.462 44.1606 126.21 20.0075C129.899 -3.76592 142.503 -21.9669 153.384 -31.7023C157.096 -35.0236 162.798 -34.7068 166.119 -30.9948Z" fill="black"/>
<path fill-rule="evenodd" clip-rule="evenodd" d="M112.011 -30.9948C115.333 -27.2828 115.016 -21.5812 111.304 -18.2599C103.145 -10.9598 92.9012 3.6076 89.9267 22.7737C87.0112 41.5603 90.9415 65.6213 112.361 92.678C135.675 122.127 147.208 145.282 151.814 162.711C156.279 179.61 154.62 193.025 148.153 200.416C144.873 204.164 139.175 204.544 135.427 201.264C131.678 197.984 131.298 192.286 134.578 188.538C135.126 187.912 138.277 182.087 134.375 167.319C130.613 153.083 120.6 132.145 98.2191 103.874C73.9436 73.2103 68.3541 44.1606 72.1025 20.0075C75.7919 -3.76592 88.3958 -21.9669 99.2765 -31.7023C102.989 -35.0236 108.69 -34.7068 112.011 -30.9948Z" fill="black"/>
<path fill-rule="evenodd" clip-rule="evenodd" d="M217.399 -30.9948C220.72 -27.2828 220.404 -21.5812 216.692 -18.2599C208.533 -10.9598 198.289 3.6076 195.314 22.7737C192.399 41.5603 196.329 65.6213 217.749 92.678C241.063 122.127 252.596 145.282 257.201 162.711C261.667 179.61 260.007 193.025 253.541 200.416C250.261 204.164 244.563 204.544 240.814 201.264C237.066 197.984 236.686 192.286 239.966 188.538C240.514 187.912 243.664 182.087 239.762 167.319C236 153.083 225.988 132.145 203.607 103.874C179.331 73.2103 173.742 44.1606 177.49 20.0075C181.18 -3.76592 193.784 -21.9669 204.664 -31.7023C208.376 -35.0236 214.078 -34.7068 217.399 -30.9948Z" fill="black"/>
</g>
</svg>
